<svg xmlns="http://www.w3.org/2000/svg" viewBox="0 0 110 110"><path d="M0 0h110v110H0z" style="fill:#262626"/><g font-family="Brandmark Sans 3 Gradient" font-size="72" font-weight="400" style="line-height:1;font-variant-ligatures:normal;text-align:center" text-anchor="middle"><g aria-label="^C" transform="matrix(.87763 0 0 .87763 -53.773 -33.804)"><circle cx="114.237" cy="116.742" r="8.493" fill="#fcfcfc"/><circle cx="113.938" cy="116.742" r="8.493" fill="#fcfbfb"/><circle cx="113.64" cy="116.742" r="8.493" fill="#fcfbfa"/><circle cx="113.342" cy="116.742" r="8.493" fill="#fcfaf9"/><circle cx="113.043" cy="116.742" r="8.493" fill="#fcf9f8"/><circle cx="112.745" cy="116.742" r="8.493" fill="#fcf9f7"/><circle cx="112.447" cy="116.742" r="8.493" fill="#fcf8f6"/><circle cx="112.148" cy="116.742" r="8.493" fill="#fcf8f5"/><circle cx="111.85" cy="116.742" r="8.493" fill="#fcf7f4"/><circle cx="111.552" cy="116.742" r="8.493" fill="#fcf6f4"/><circle cx="111.254" cy="116.742" r="8.493" fill="#fcf6f3"/><circle cx="110.955" cy="116.742" r="8.493" fill="#fcf5f2"/><circle cx="110.657" cy="116.742" r="8.493" fill="#fbf4f1"/><circle cx="110.359" cy="116.742" r="8.493" fill="#fbf4f0"/><circle cx="110.06" cy="116.742" r="8.493" fill="#fbf3ef"/><circle cx="109.762" cy="116.742" r="8.493" fill="#fbf2ee"/><circle cx="109.464" cy="116.742" r="8.493" fill="#fbf2ed"/><circle cx="109.165" cy="116.742" r="8.493" fill="#fbf1ec"/><circle cx="108.867" cy="116.742" r="8.493" fill="#fbf1eb"/><circle cx="108.569" cy="116.742" r="8.493" fill="#fbf0ea"/><circle cx="108.27" cy="116.742" r="8.493" fill="#fbefe9"/><circle cx="107.972" cy="116.742" r="8.493" fill="#fbefe8"/><circle cx="107.674" cy="116.742" r="8.493" fill="#fbeee7"/><circle cx="107.376" cy="116.742" r="8.493" fill="#fbede6"/><circle cx="107.077" cy="116.742" r="8.493" fill="#fbede5"/><circle cx="106.779" cy="116.742" r="8.493" fill="#fbece4"/><circle cx="106.481" cy="116.742" r="8.493" fill="#fbebe4"/><circle cx="106.182" cy="116.742" r="8.493" fill="#fbebe3"/><circle cx="105.884" cy="116.742" r="8.493" fill="#fbeae2"/><circle cx="105.586" cy="116.742" r="8.493" fill="#fbeae1"/><circle cx="105.287" cy="116.742" r="8.493" fill="#fbe9e0"/><circle cx="104.989" cy="116.742" r="8.493" fill="#fbe8df"/><circle cx="104.691" cy="116.742" r="8.493" fill="#fbe8de"/><circle cx="104.392" cy="116.742" r="8.493" fill="#fbe7dd"/><circle cx="104.094" cy="116.742" r="8.493" fill="#fbe6dc"/><circle cx="103.796" cy="116.742" r="8.493" fill="#fae6db"/><circle cx="103.498" cy="116.742" r="8.493" fill="#fae5da"/><circle cx="103.199" cy="116.742" r="8.493" fill="#fae4d9"/><circle cx="102.901" cy="116.742" r="8.493" fill="#fae4d8"/><circle cx="102.603" cy="116.742" r="8.493" fill="#fae3d7"/><circle cx="102.294" cy="116.741" r="8.493" fill="#fae3d6"/><circle cx="101.981" cy="116.734" r="8.493" fill="#fae2d5"/><circle cx="101.669" cy="116.722" r="8.493" fill="#fae1d4"/><circle cx="101.359" cy="116.704" r="8.493" fill="#fae1d4"/><circle cx="101.051" cy="116.68" r="8.493" fill="#fae0d3"/><circle cx="100.744" cy="116.651" r="8.493" fill="#fadfd2"/><circle cx="100.438" cy="116.616" r="8.493" fill="#fadfd1"/><circle cx="100.135" cy="116.576" r="8.493" fill="#faded0"/><circle cx="99.833" cy="116.53" r="8.493" fill="#fadecf"/><circle cx="99.533" cy="116.479" r="8.493" fill="#faddce"/><circle cx="99.234" cy="116.423" r="8.493" fill="#fadccd"/><circle cx="98.938" cy="116.362" r="8.493" fill="#fadccc"/><circle cx="98.644" cy="116.295" r="8.493" fill="#fadbcb"/><circle cx="98.351" cy="116.223" r="8.493" fill="#fadaca"/><circle cx="98.061" cy="116.146" r="8.493" fill="#fadac9"/><circle cx="97.772" cy="116.064" r="8.493" fill="#fad9c8"/><circle cx="97.486" cy="115.977" r="8.493" fill="#fad8c7"/><circle cx="97.202" cy="115.885" r="8.493" fill="#fad8c6"/><circle cx="96.921" cy="115.788" r="8.493" fill="#f9d7c5"/><circle cx="96.641" cy="115.687" r="8.493" fill="#f9d7c4"/><circle cx="96.364" cy="115.58" r="8.493" fill="#f9d6c4"/><circle cx="96.089" cy="115.469" r="8.493" fill="#f9d5c3"/><circle cx="95.817" cy="115.353" r="8.493" fill="#f9d5c2"/><circle cx="95.547" cy="115.233" r="8.493" fill="#f9d4c1"/><circle cx="95.28" cy="115.107" r="8.493" fill="#f9d3c0"/><circle cx="95.015" cy="114.978" r="8.493" fill="#f9d3bf"/><circle cx="94.753" cy="114.844" r="8.493" fill="#f9d2be"/><circle cx="94.494" cy="114.705" r="8.493" fill="#f9d1bd"/><circle cx="94.237" cy="114.562" r="8.493" fill="#f9d1bc"/><circle cx="93.984" cy="114.415" r="8.493" fill="#f9d0bb"/><circle cx="93.733" cy="114.263" r="8.493" fill="#f9d0ba"/><circle cx="93.485" cy="114.107" r="8.493" fill="#f9cfb9"/><circle cx="93.24" cy="113.947" r="8.493" fill="#f9ceb8"/><circle cx="92.997" cy="113.783" r="8.493" fill="#f9ceb7"/><circle cx="92.758" cy="113.614" r="8.493" fill="#f9cdb6"/><circle cx="92.522" cy="113.442" r="8.493" fill="#f9ccb5"/><circle cx="92.29" cy="113.266" r="8.493" fill="#f9ccb4"/><circle cx="92.06" cy="113.085" r="8.493" fill="#f9cbb4"/><circle cx="91.833" cy="112.901" r="8.493" fill="#f9cab3"/><circle cx="91.61" cy="112.713" r="8.493" fill="#f9cab2"/><circle cx="91.391" cy="112.521" r="8.493" fill="#f9c9b1"/><circle cx="91.174" cy="112.326" r="8.493" fill="#f9c9b0"/><circle cx="90.961" cy="112.126" r="8.493" fill="#f8c8af"/><circle cx="90.752" cy="111.924" r="8.493" fill="#f8c7ae"/><circle cx="90.546" cy="111.717" r="8.493" fill="#f8c7ad"/><circle cx="90.344" cy="111.507" r="8.493" fill="#f8c6ac"/><circle cx="90.145" cy="111.294" r="8.493" fill="#f8c5ab"/><circle cx="89.95" cy="111.077" r="8.493" fill="#f8c5aa"/><circle cx="89.759" cy="110.856" r="8.493" fill="#f8c4a9"/><circle cx="89.572" cy="110.633" r="8.493" fill="#f8c3a8"/><circle cx="89.388" cy="110.406" r="8.493" fill="#f8c3a7"/><circle cx="89.209" cy="110.176" r="8.493" fill="#f8c2a6"/><circle cx="89.033" cy="109.942" r="8.493" fill="#f8c2a5"/><circle cx="88.861" cy="109.706" r="8.493" fill="#f8c1a4"/><circle cx="88.694" cy="109.466" r="8.493" fill="#f8c0a4"/><circle cx="88.53" cy="109.223" r="8.493" fill="#f8c0a3"/><circle cx="88.371" cy="108.978" r="8.493" fill="#f8bfa2"/><circle cx="88.216" cy="108.729" r="8.493" fill="#f8bea1"/><circle cx="88.065" cy="108.478" r="8.493" fill="#f8bea0"/><circle cx="87.918" cy="108.223" r="8.493" fill="#f8bd9f"/><circle cx="87.776" cy="107.966" r="8.493" fill="#f8bc9e"/><circle cx="87.638" cy="107.707" r="8.493" fill="#f8bc9d"/><circle cx="87.505" cy="107.444" r="8.493" fill="#f8bb9c"/><circle cx="87.376" cy="107.179" r="8.493" fill="#f8bb9b"/><circle cx="87.251" cy="106.911" r="8.493" fill="#f8ba9a"/><circle cx="87.132" cy="106.641" r="8.493" fill="#f7b999"/><circle cx="87.016" cy="106.368" r="8.493" fill="#f7b998"/><circle cx="86.906" cy="106.093" r="8.493" fill="#f7b897"/><circle cx="86.8" cy="105.816" r="8.493" fill="#f7b796"/><circle cx="86.7" cy="105.536" r="8.493" fill="#f7b795"/><circle cx="86.604" cy="105.254" r="8.493" fill="#f7b694"/><circle cx="86.513" cy="104.969" r="8.493" fill="#f7b594"/><circle cx="86.426" cy="104.683" r="8.493" fill="#f7b593"/><circle cx="86.345" cy="104.394" r="8.493" fill="#f7b492"/><circle cx="86.269" cy="104.103" r="8.493" fill="#f7b491"/><circle cx="86.198" cy="103.811" r="8.493" fill="#f7b390"/><circle cx="86.132" cy="103.516" r="8.493" fill="#f7b28f"/><circle cx="86.072" cy="103.219" r="8.493" fill="#f7b28e"/><circle cx="86.017" cy="102.921" r="8.493" fill="#f7b18d"/><circle cx="85.967" cy="102.62" r="8.493" fill="#f7b08c"/><circle cx="85.922" cy="102.318" r="8.493" fill="#f7b08b"/><circle cx="85.883" cy="102.014" r="8.493" fill="#f7af8a"/><circle cx="85.849" cy="101.709" r="8.493" fill="#f7ae89"/><circle cx="85.821" cy="101.401" r="8.493" fill="#f7ae88"/><circle cx="85.798" cy="101.092" r="8.493" fill="#f7ad87"/><circle cx="85.781" cy="100.782" r="8.493" fill="#f7ad86"/><circle cx="85.769" cy="100.47" r="8.493" fill="#f7ac85"/><circle cx="85.763" cy="100.157" r="8.493" fill="#f7ab84"/><circle cx="85.763" cy="99.843" r="8.493" fill="#f6ab84"/><circle cx="85.769" cy="99.53" r="8.493" fill="#f6aa83"/><circle cx="85.781" cy="99.218" r="8.493" fill="#f6a982"/><circle cx="85.798" cy="98.908" r="8.493" fill="#f6a981"/><circle cx="85.821" cy="98.599" r="8.493" fill="#f6a880"/><circle cx="85.849" cy="98.291" r="8.493" fill="#f6a87f"/><circle cx="85.883" cy="97.986" r="8.493" fill="#f6a77e"/><circle cx="85.922" cy="97.682" r="8.493" fill="#f6a67d"/><circle cx="85.967" cy="97.38" r="8.493" fill="#f6a67c"/><circle cx="86.017" cy="97.079" r="8.493" fill="#f6a57b"/><circle cx="86.072" cy="96.781" r="8.493" fill="#f6a47a"/><circle cx="86.132" cy="96.484" r="8.493" fill="#f6a479"/><circle cx="86.198" cy="96.189" r="8.493" fill="#f6a378"/><circle cx="86.269" cy="95.897" r="8.493" fill="#f6a277"/><circle cx="86.345" cy="95.606" r="8.493" fill="#f6a276"/><circle cx="86.426" cy="95.317" r="8.493" fill="#f6a175"/><circle cx="86.513" cy="95.031" r="8.493" fill="#f6a174"/><circle cx="86.604" cy="94.746" r="8.493" fill="#f6a074"/><circle cx="86.7" cy="94.464" r="8.493" fill="#f69f73"/><circle cx="86.8" cy="94.184" r="8.493" fill="#f69f72"/><circle cx="86.906" cy="93.907" r="8.493" fill="#f69e71"/><circle cx="87.016" cy="93.632" r="8.493" fill="#f69d70"/><circle cx="87.132" cy="93.359" r="8.493" fill="#f69d6f"/><circle cx="87.251" cy="93.089" r="8.493" fill="#f59c6e"/><circle cx="87.376" cy="92.821" r="8.493" fill="#f59b6d"/><circle cx="87.505" cy="92.556" r="8.493" fill="#f59b6c"/><circle cx="87.638" cy="92.293" r="8.493" fill="#f59a6b"/><circle cx="87.776" cy="92.034" r="8.493" fill="#f59a6a"/><circle cx="87.918" cy="91.777" r="8.493" fill="#f59969"/><circle cx="88.065" cy="91.522" r="8.493" fill="#f59868"/><circle cx="88.216" cy="91.271" r="8.493" fill="#f59867"/><circle cx="88.371" cy="91.022" r="8.493" fill="#f59766"/><circle cx="88.53" cy="90.777" r="8.493" fill="#f59665"/><circle cx="88.694" cy="90.534" r="8.493" fill="#f59664"/><circle cx="88.861" cy="90.294" r="8.493" fill="#f59564"/><circle cx="89.033" cy="90.058" r="8.493" fill="#f59463"/><circle cx="89.209" cy="89.824" r="8.493" fill="#f59462"/><circle cx="89.388" cy="89.594" r="8.493" fill="#f59361"/><circle cx="89.572" cy="89.367" r="8.493" fill="#f59360"/><circle cx="89.759" cy="89.144" r="8.493" fill="#f5925f"/><circle cx="89.95" cy="88.923" r="8.493" fill="#f5915e"/><circle cx="90.145" cy="88.706" r="8.493" fill="#f5915d"/><circle cx="90.344" cy="88.493" r="8.493" fill="#f5905c"/><circle cx="90.546" cy="88.283" r="8.493" fill="#f58f5b"/><circle cx="90.752" cy="88.076" r="8.493" fill="#f58f5a"/><circle cx="90.961" cy="87.874" r="8.493" fill="#f58e59"/><circle cx="91.174" cy="87.674" r="8.493" fill="#f48d58"/><circle cx="91.391" cy="87.479" r="8.493" fill="#f48d57"/><circle cx="91.61" cy="87.287" r="8.493" fill="#f48c56"/><circle cx="91.833" cy="87.099" r="8.493" fill="#f48c55"/><circle cx="92.06" cy="86.915" r="8.493" fill="#f48b54"/><circle cx="92.29" cy="86.734" r="8.493" fill="#f48a54"/><circle cx="92.522" cy="86.558" r="8.493" fill="#f48a53"/><circle cx="92.758" cy="86.386" r="8.493" fill="#f48952"/><circle cx="92.997" cy="86.217" r="8.493" fill="#f48851"/><circle cx="93.24" cy="86.053" r="8.493" fill="#f48850"/><circle cx="93.485" cy="85.893" r="8.493" fill="#f4874f"/><circle cx="93.733" cy="85.737" r="8.493" fill="#f4864e"/><circle cx="93.984" cy="85.585" r="8.493" fill="#f4864d"/><circle cx="94.237" cy="85.438" r="8.493" fill="#f4854c"/><circle cx="94.494" cy="85.295" r="8.493" fill="#f4854b"/><circle cx="94.753" cy="85.156" r="8.493" fill="#f4844a"/><circle cx="95.015" cy="85.022" r="8.493" fill="#f48349"/><circle cx="95.28" cy="84.893" r="8.493" fill="#f48348"/><circle cx="95.547" cy="84.767" r="8.493" fill="#f48247"/><circle cx="95.817" cy="84.647" r="8.493" fill="#f48146"/><circle cx="96.089" cy="84.531" r="8.493" fill="#f48145"/><circle cx="96.364" cy="84.42" r="8.493" fill="#f48044"/><circle cx="96.641" cy="84.313" r="8.493" fill="#f47f44"/><circle cx="96.921" cy="84.212" r="8.493" fill="#f47f43"/><circle cx="97.202" cy="84.115" r="8.493" fill="#f37e42"/><circle cx="97.486" cy="84.023" r="8.493" fill="#f37e41"/><circle cx="97.772" cy="83.936" r="8.493" fill="#f37d40"/><circle cx="98.061" cy="83.854" r="8.493" fill="#f37c3f"/><circle cx="98.351" cy="83.777" r="8.493" fill="#f37c3e"/><circle cx="98.644" cy="83.705" r="8.493" fill="#f37b3d"/><circle cx="98.938" cy="83.638" r="8.493" fill="#f37a3c"/><circle cx="99.234" cy="83.577" r="8.493" fill="#f37a3b"/><circle cx="99.533" cy="83.521" r="8.493" fill="#f3793a"/><circle cx="99.833" cy="83.47" r="8.493" fill="#f37839"/><circle cx="100.135" cy="83.424" r="8.493" fill="#f37838"/><circle cx="100.438" cy="83.384" r="8.493" fill="#f37737"/><circle cx="100.744" cy="83.349" r="8.493" fill="#f37736"/><circle cx="101.051" cy="83.32" r="8.493" fill="#f37635"/><circle cx="101.359" cy="83.296" r="8.493" fill="#f37534"/><circle cx="101.669" cy="83.278" r="8.493" fill="#f37534"/><circle cx="101.981" cy="83.266" r="8.493" fill="#f37433"/><circle cx="102.294" cy="83.259" r="8.493" fill="#f37332"/><circle cx="102.603" cy="83.258" r="8.493" fill="#f37331"/><circle cx="102.901" cy="83.258" r="8.493" fill="#f37230"/><circle cx="103.199" cy="83.258" r="8.493" fill="#f3722f"/><circle cx="103.498" cy="83.258" r="8.493" fill="#f3712e"/><circle cx="103.796" cy="83.258" r="8.493" fill="#f3702d"/><circle cx="104.094" cy="83.258" r="8.493" fill="#f2702c"/><circle cx="104.392" cy="83.258" r="8.493" fill="#f26f2b"/><circle cx="104.691" cy="83.258" r="8.493" fill="#f26e2a"/><circle cx="104.989" cy="83.258" r="8.493" fill="#f26e29"/><circle cx="105.287" cy="83.258" r="8.493" fill="#f26d28"/><circle cx="105.586" cy="83.258" r="8.493" fill="#f26c27"/><circle cx="105.884" cy="83.258" r="8.493" fill="#f26c26"/><circle cx="106.182" cy="83.258" r="8.493" fill="#f26b25"/><circle cx="106.481" cy="83.258" r="8.493" fill="#f26b24"/><circle cx="106.779" cy="83.258" r="8.493" fill="#f26a24"/><circle cx="107.077" cy="83.258" r="8.493" fill="#f26923"/><circle cx="107.376" cy="83.258" r="8.493" fill="#f26922"/><circle cx="107.674" cy="83.258" r="8.493" fill="#f26821"/><circle cx="107.972" cy="83.258" r="8.493" fill="#f26720"/><circle cx="108.27" cy="83.258" r="8.493" fill="#f2671f"/><circle cx="108.569" cy="83.258" r="8.493" fill="#f2661e"/><circle cx="108.867" cy="83.258" r="8.493" fill="#f2651d"/><circle cx="109.165" cy="83.258" r="8.493" fill="#f2651c"/><circle cx="109.464" cy="83.258" r="8.493" fill="#f2641b"/><circle cx="109.762" cy="83.258" r="8.493" fill="#f2641a"/><circle cx="110.06" cy="83.258" r="8.493" fill="#f26319"/><circle cx="110.359" cy="83.258" r="8.493" fill="#f26218"/><circle cx="110.657" cy="83.258" r="8.493" fill="#f26217"/><circle cx="110.955" cy="83.258" r="8.493" fill="#f16116"/><circle cx="111.254" cy="83.258" r="8.493" fill="#f16015"/><circle cx="111.552" cy="83.258" r="8.493" fill="#f16014"/><circle cx="111.85" cy="83.258" r="8.493" fill="#f15f14"/><circle cx="112.148" cy="83.258" r="8.493" fill="#f15e13"/><circle cx="112.447" cy="83.258" r="8.493" fill="#f15e12"/><circle cx="112.745" cy="83.258" r="8.493" fill="#f15d11"/><circle cx="113.043" cy="83.258" r="8.493" fill="#f15d10"/><circle cx="113.342" cy="83.258" r="8.493" fill="#f15c0f"/><circle cx="113.64" cy="83.258" r="8.493" fill="#f15b0e"/><circle cx="113.938" cy="83.258" r="8.493" fill="#f15b0d"/><circle cx="114.237" cy="83.258" r="8.493" fill="#f15a0c"/></g><g aria-label="^S" transform="matrix(.87763 0 0 .87763 -10.83 -33.576)"><circle cx="85.713" cy="116.786" r="8.493" fill="#fcfcfc"/><circle cx="86.153" cy="116.786" r="8.493" fill="#fcfbfb"/><circle cx="86.592" cy="116.786" r="8.493" fill="#fcfbfa"/><circle cx="87.032" cy="116.786" r="8.493" fill="#fcfaf9"/><circle cx="87.471" cy="116.786" r="8.493" fill="#fcf9f8"/><circle cx="87.911" cy="116.786" r="8.493" fill="#fcf9f7"/><circle cx="88.351" cy="116.786" r="8.493" fill="#fcf8f6"/><circle cx="88.79" cy="116.786" r="8.493" fill="#fcf8f5"/><circle cx="89.23" cy="116.786" r="8.493" fill="#fcf7f4"/><circle cx="89.669" cy="116.786" r="8.493" fill="#fcf6f4"/><circle cx="90.109" cy="116.786" r="8.493" fill="#fcf6f3"/><circle cx="90.548" cy="116.786" r="8.493" fill="#fcf5f2"/><circle cx="90.988" cy="116.786" r="8.493" fill="#fbf4f1"/><circle cx="91.428" cy="116.786" r="8.493" fill="#fbf4f0"/><circle cx="91.867" cy="116.786" r="8.493" fill="#fbf3ef"/><circle cx="92.307" cy="116.786" r="8.493" fill="#fbf2ee"/><circle cx="92.746" cy="116.786" r="8.493" fill="#fbf2ed"/><circle cx="93.186" cy="116.786" r="8.493" fill="#fbf1ec"/><circle cx="93.625" cy="116.786" r="8.493" fill="#fbf1eb"/><circle cx="94.065" cy="116.786" r="8.493" fill="#fbf0ea"/><circle cx="94.505" cy="116.786" r="8.493" fill="#fbefe9"/><circle cx="94.944" cy="116.786" r="8.493" fill="#fbefe8"/><circle cx="95.384" cy="116.786" r="8.493" fill="#fbeee7"/><circle cx="95.823" cy="116.786" r="8.493" fill="#fbede6"/><circle cx="96.263" cy="116.786" r="8.493" fill="#fbede5"/><circle cx="96.703" cy="116.786" r="8.493" fill="#fbece4"/><circle cx="97.142" cy="116.786" r="8.493" fill="#fbebe4"/><circle cx="97.582" cy="116.786" r="8.493" fill="#fbebe3"/><circle cx="98.021" cy="116.786" r="8.493" fill="#fbeae2"/><circle cx="98.461" cy="116.786" r="8.493" fill="#fbeae1"/><circle cx="98.9" cy="116.786" r="8.493" fill="#fbe9e0"/><circle cx="99.34" cy="116.786" r="8.493" fill="#fbe8df"/><circle cx="99.78" cy="116.786" r="8.493" fill="#fbe8de"/><circle cx="100.219" cy="116.786" r="8.493" fill="#fbe7dd"/><circle cx="100.659" cy="116.786" r="8.493" fill="#fbe6dc"/><circle cx="101.098" cy="116.786" r="8.493" fill="#fae6db"/><circle cx="101.538" cy="116.786" r="8.493" fill="#fae5da"/><circle cx="101.977" cy="116.786" r="8.493" fill="#fae4d9"/><circle cx="102.417" cy="116.786" r="8.493" fill="#fae4d8"/><circle cx="102.857" cy="116.786" r="8.493" fill="#fae3d7"/><circle cx="103.296" cy="116.786" r="8.493" fill="#fae3d6"/><circle cx="103.736" cy="116.786" r="8.493" fill="#fae2d5"/><circle cx="104.175" cy="116.786" r="8.493" fill="#fae1d4"/><circle cx="104.615" cy="116.786" r="8.493" fill="#fae1d4"/><circle cx="105.055" cy="116.786" r="8.493" fill="#fae0d3"/><circle cx="105.494" cy="116.786" r="8.493" fill="#fadfd2"/><circle cx="105.936" cy="116.785" r="8.493" fill="#fadfd1"/><circle cx="106.396" cy="116.771" r="8.493" fill="#faded0"/><circle cx="106.849" cy="116.732" r="8.493" fill="#fadecf"/><circle cx="107.296" cy="116.669" r="8.493" fill="#faddce"/><circle cx="107.734" cy="116.583" r="8.493" fill="#fadccd"/><circle cx="108.164" cy="116.475" r="8.493" fill="#fadccc"/><circle cx="108.585" cy="116.345" r="8.493" fill="#fadbcb"/><circle cx="108.996" cy="116.194" r="8.493" fill="#fadaca"/><circle cx="109.397" cy="116.022" r="8.493" fill="#fadac9"/><circle cx="109.786" cy="115.831" r="8.493" fill="#fad9c8"/><circle cx="110.164" cy="115.62" r="8.493" fill="#fad8c7"/><circle cx="110.53" cy="115.39" r="8.493" fill="#fad8c6"/><circle cx="110.883" cy="115.143" r="8.493" fill="#f9d7c5"/><circle cx="111.222" cy="114.878" r="8.493" fill="#f9d7c4"/><circle cx="111.547" cy="114.597" r="8.493" fill="#f9d6c4"/><circle cx="111.857" cy="114.299" r="8.493" fill="#f9d5c3"/><circle cx="112.151" cy="113.987" r="8.493" fill="#f9d5c2"/><circle cx="112.43" cy="113.659" r="8.493" fill="#f9d4c1"/><circle cx="112.691" cy="113.317" r="8.493" fill="#f9d3c0"/><circle cx="112.935" cy="112.962" r="8.493" fill="#f9d3bf"/><circle cx="113.161" cy="112.594" r="8.493" fill="#f9d2be"/><circle cx="113.369" cy="112.214" r="8.493" fill="#f9d1bd"/><circle cx="113.557" cy="111.822" r="8.493" fill="#f9d1bc"/><circle cx="113.725" cy="111.42" r="8.493" fill="#f9d0bb"/><circle cx="113.872" cy="111.007" r="8.493" fill="#f9d0ba"/><circle cx="113.998" cy="110.584" r="8.493" fill="#f9cfb9"/><circle cx="114.102" cy="110.152" r="8.493" fill="#f9ceb8"/><circle cx="114.184" cy="109.713" r="8.493" fill="#f9ceb7"/><circle cx="114.242" cy="109.265" r="8.493" fill="#f9cdb6"/><circle cx="114.277" cy="108.81" r="8.493" fill="#f9ccb5"/><circle cx="114.287" cy="108.351" r="8.493" fill="#f9ccb4"/><circle cx="114.287" cy="107.912" r="8.493" fill="#f9cbb4"/><circle cx="114.287" cy="107.472" r="8.493" fill="#f9cab3"/><circle cx="114.287" cy="107.033" r="8.493" fill="#f9cab2"/><circle cx="114.287" cy="106.593" r="8.493" fill="#f9c9b1"/><circle cx="114.287" cy="106.153" r="8.493" fill="#f9c9b0"/><circle cx="114.287" cy="105.714" r="8.493" fill="#f8c8af"/><circle cx="114.287" cy="105.274" r="8.493" fill="#f8c7ae"/><circle cx="114.287" cy="104.835" r="8.493" fill="#f8c7ad"/><circle cx="114.287" cy="104.395" r="8.493" fill="#f8c6ac"/><circle cx="114.287" cy="103.956" r="8.493" fill="#f8c5ab"/><circle cx="114.287" cy="103.516" r="8.493" fill="#f8c5aa"/><circle cx="114.287" cy="103.076" r="8.493" fill="#f8c4a9"/><circle cx="114.287" cy="102.637" r="8.493" fill="#f8c3a8"/><circle cx="114.287" cy="102.197" r="8.493" fill="#f8c3a7"/><circle cx="114.287" cy="101.758" r="8.493" fill="#f8c2a6"/><circle cx="114.287" cy="101.318" r="8.493" fill="#f8c2a5"/><circle cx="114.287" cy="100.879" r="8.493" fill="#f8c1a4"/><circle cx="114.287" cy="100.439" r="8.493" fill="#f8c0a4"/><circle cx="114.287" cy="99.999" r="8.493" fill="#f8c0a3"/><circle cx="113.848" cy="99.999" r="8.493" fill="#f8bfa2"/><circle cx="113.408" cy="99.999" r="8.493" fill="#f8bea1"/><circle cx="112.969" cy="99.999" r="8.493" fill="#f8bea0"/><circle cx="112.529" cy="99.999" r="8.493" fill="#f8bd9f"/><circle cx="112.089" cy="99.999" r="8.493" fill="#f8bc9e"/><circle cx="111.65" cy="99.999" r="8.493" fill="#f8bc9d"/><circle cx="111.21" cy="99.999" r="8.493" fill="#f8bb9c"/><circle cx="110.771" cy="99.999" r="8.493" fill="#f8bb9b"/><circle cx="110.331" cy="99.999" r="8.493" fill="#f8ba9a"/><circle cx="109.891" cy="99.999" r="8.493" fill="#f7b999"/><circle cx="109.452" cy="99.999" r="8.493" fill="#f7b998"/><circle cx="109.012" cy="99.999" r="8.493" fill="#f7b897"/><circle cx="108.573" cy="99.999" r="8.493" fill="#f7b796"/><circle cx="108.133" cy="99.999" r="8.493" fill="#f7b795"/><circle cx="107.694" cy="99.999" r="8.493" fill="#f7b694"/><circle cx="107.254" cy="99.999" r="8.493" fill="#f7b594"/><circle cx="106.814" cy="99.999" r="8.493" fill="#f7b593"/><circle cx="106.375" cy="99.999" r="8.493" fill="#f7b492"/><circle cx="105.935" cy="99.999" r="8.493" fill="#f7b491"/><circle cx="105.496" cy="99.999" r="8.493" fill="#f7b390"/><circle cx="105.056" cy="99.999" r="8.493" fill="#f7b28f"/><circle cx="104.617" cy="99.999" r="8.493" fill="#f7b28e"/><circle cx="104.177" cy="99.999" r="8.493" fill="#f7b18d"/><circle cx="103.737" cy="99.999" r="8.493" fill="#f7b08c"/><circle cx="103.298" cy="99.999" r="8.493" fill="#f7b08b"/><circle cx="102.858" cy="99.999" r="8.493" fill="#f7af8a"/><circle cx="102.419" cy="99.999" r="8.493" fill="#f7ae89"/><circle cx="101.979" cy="99.999" r="8.493" fill="#f7ae88"/><circle cx="101.539" cy="99.999" r="8.493" fill="#f7ad87"/><circle cx="101.1" cy="99.999" r="8.493" fill="#f7ad86"/><circle cx="100.66" cy="99.999" r="8.493" fill="#f7ac85"/><circle cx="100.221" cy="99.999" r="8.493" fill="#f7ab84"/><circle cx="99.781" cy="99.999" r="8.493" fill="#f6ab84"/><circle cx="99.342" cy="99.999" r="8.493" fill="#f6aa83"/><circle cx="98.902" cy="99.999" r="8.493" fill="#f6a982"/><circle cx="98.462" cy="99.999" r="8.493" fill="#f6a981"/><circle cx="98.023" cy="99.999" r="8.493" fill="#f6a880"/><circle cx="97.583" cy="99.999" r="8.493" fill="#f6a87f"/><circle cx="97.144" cy="99.999" r="8.493" fill="#f6a77e"/><circle cx="96.704" cy="99.999" r="8.493" fill="#f6a67d"/><circle cx="96.265" cy="99.999" r="8.493" fill="#f6a67c"/><circle cx="95.825" cy="99.999" r="8.493" fill="#f6a57b"/><circle cx="95.385" cy="99.999" r="8.493" fill="#f6a47a"/><circle cx="94.946" cy="99.999" r="8.493" fill="#f6a479"/><circle cx="94.506" cy="99.999" r="8.493" fill="#f6a378"/><circle cx="94.067" cy="99.999" r="8.493" fill="#f6a277"/><circle cx="93.627" cy="99.999" r="8.493" fill="#f6a276"/><circle cx="93.188" cy="99.999" r="8.493" fill="#f6a175"/><circle cx="92.748" cy="99.999" r="8.493" fill="#f6a174"/><circle cx="92.308" cy="99.999" r="8.493" fill="#f6a074"/><circle cx="91.869" cy="99.999" r="8.493" fill="#f69f73"/><circle cx="91.429" cy="99.999" r="8.493" fill="#f69f72"/><circle cx="90.99" cy="99.999" r="8.493" fill="#f69e71"/><circle cx="90.55" cy="99.999" r="8.493" fill="#f69d70"/><circle cx="90.11" cy="99.999" r="8.493" fill="#f69d6f"/><circle cx="89.671" cy="99.999" r="8.493" fill="#f59c6e"/><circle cx="89.231" cy="99.999" r="8.493" fill="#f59b6d"/><circle cx="88.792" cy="99.999" r="8.493" fill="#f59b6c"/><circle cx="88.352" cy="99.999" r="8.493" fill="#f59a6b"/><circle cx="87.913" cy="99.999" r="8.493" fill="#f59a6a"/><circle cx="87.473" cy="99.999" r="8.493" fill="#f59969"/><circle cx="87.033" cy="99.999" r="8.493" fill="#f59868"/><circle cx="86.594" cy="99.999" r="8.493" fill="#f59867"/><circle cx="86.154" cy="99.999" r="8.493" fill="#f59766"/><circle cx="85.715" cy="99.999" r="8.493" fill="#f59665"/><circle cx="85.713" cy="99.561" r="8.493" fill="#f59664"/><circle cx="85.713" cy="99.121" r="8.493" fill="#f59564"/><circle cx="85.713" cy="98.682" r="8.493" fill="#f59463"/><circle cx="85.713" cy="98.242" r="8.493" fill="#f59462"/><circle cx="85.713" cy="97.803" r="8.493" fill="#f59361"/><circle cx="85.713" cy="97.363" r="8.493" fill="#f59360"/><circle cx="85.713" cy="96.924" r="8.493" fill="#f5925f"/><circle cx="85.713" cy="96.484" r="8.493" fill="#f5915e"/><circle cx="85.713" cy="96.044" r="8.493" fill="#f5915d"/><circle cx="85.713" cy="95.605" r="8.493" fill="#f5905c"/><circle cx="85.713" cy="95.165" r="8.493" fill="#f58f5b"/><circle cx="85.713" cy="94.726" r="8.493" fill="#f58f5a"/><circle cx="85.713" cy="94.286" r="8.493" fill="#f58e59"/><circle cx="85.713" cy="93.847" r="8.493" fill="#f48d58"/><circle cx="85.713" cy="93.407" r="8.493" fill="#f48d57"/><circle cx="85.713" cy="92.967" r="8.493" fill="#f48c56"/><circle cx="85.713" cy="92.528" r="8.493" fill="#f48c55"/><circle cx="85.713" cy="92.088" r="8.493" fill="#f48b54"/><circle cx="85.713" cy="91.649" r="8.493" fill="#f48a54"/><circle cx="85.723" cy="91.19" r="8.493" fill="#f48a53"/><circle cx="85.758" cy="90.735" r="8.493" fill="#f48952"/><circle cx="85.816" cy="90.287" r="8.493" fill="#f48851"/><circle cx="85.898" cy="89.848" r="8.493" fill="#f48850"/><circle cx="86.002" cy="89.416" r="8.493" fill="#f4874f"/><circle cx="86.128" cy="88.993" r="8.493" fill="#f4864e"/><circle cx="86.275" cy="88.58" r="8.493" fill="#f4864d"/><circle cx="86.443" cy="88.178" r="8.493" fill="#f4854c"/><circle cx="86.631" cy="87.786" r="8.493" fill="#f4854b"/><circle cx="86.839" cy="87.406" r="8.493" fill="#f4844a"/><circle cx="87.065" cy="87.038" r="8.493" fill="#f48349"/><circle cx="87.309" cy="86.683" r="8.493" fill="#f48348"/><circle cx="87.57" cy="86.341" r="8.493" fill="#f48247"/><circle cx="87.849" cy="86.013" r="8.493" fill="#f48146"/><circle cx="88.143" cy="85.701" r="8.493" fill="#f48145"/><circle cx="88.453" cy="85.403" r="8.493" fill="#f48044"/><circle cx="88.778" cy="85.122" r="8.493" fill="#f47f44"/><circle cx="89.117" cy="84.857" r="8.493" fill="#f47f43"/><circle cx="89.47" cy="84.61" r="8.493" fill="#f37e42"/><circle cx="89.836" cy="84.38" r="8.493" fill="#f37e41"/><circle cx="90.214" cy="84.169" r="8.493" fill="#f37d40"/><circle cx="90.603" cy="83.978" r="8.493" fill="#f37c3f"/><circle cx="91.004" cy="83.806" r="8.493" fill="#f37c3e"/><circle cx="91.415" cy="83.655" r="8.493" fill="#f37b3d"/><circle cx="91.836" cy="83.525" r="8.493" fill="#f37a3c"/><circle cx="92.266" cy="83.417" r="8.493" fill="#f37a3b"/><circle cx="92.704" cy="83.331" r="8.493" fill="#f3793a"/><circle cx="93.151" cy="83.268" r="8.493" fill="#f37839"/><circle cx="93.604" cy="83.229" r="8.493" fill="#f37838"/><circle cx="94.064" cy="83.215" r="8.493" fill="#f37737"/><circle cx="94.506" cy="83.214" r="8.493" fill="#f37736"/><circle cx="94.945" cy="83.214" r="8.493" fill="#f37635"/><circle cx="95.385" cy="83.214" r="8.493" fill="#f37534"/><circle cx="95.825" cy="83.214" r="8.493" fill="#f37534"/><circle cx="96.264" cy="83.214" r="8.493" fill="#f37433"/><circle cx="96.704" cy="83.214" r="8.493" fill="#f37332"/><circle cx="97.143" cy="83.214" r="8.493" fill="#f37331"/><circle cx="97.583" cy="83.214" r="8.493" fill="#f37230"/><circle cx="98.023" cy="83.214" r="8.493" fill="#f3722f"/><circle cx="98.462" cy="83.214" r="8.493" fill="#f3712e"/><circle cx="98.902" cy="83.214" r="8.493" fill="#f3702d"/><circle cx="99.341" cy="83.214" r="8.493" fill="#f2702c"/><circle cx="99.781" cy="83.214" r="8.493" fill="#f26f2b"/><circle cx="100.22" cy="83.214" r="8.493" fill="#f26e2a"/><circle cx="100.66" cy="83.214" r="8.493" fill="#f26e29"/><circle cx="101.1" cy="83.214" r="8.493" fill="#f26d28"/><circle cx="101.539" cy="83.214" r="8.493" fill="#f26c27"/><circle cx="101.979" cy="83.214" r="8.493" fill="#f26c26"/><circle cx="102.418" cy="83.214" r="8.493" fill="#f26b25"/><circle cx="102.858" cy="83.214" r="8.493" fill="#f26b24"/><circle cx="103.297" cy="83.214" r="8.493" fill="#f26a24"/><circle cx="103.737" cy="83.214" r="8.493" fill="#f26923"/><circle cx="104.177" cy="83.214" r="8.493" fill="#f26922"/><circle cx="104.616" cy="83.214" r="8.493" fill="#f26821"/><circle cx="105.056" cy="83.214" r="8.493" fill="#f26720"/><circle cx="105.495" cy="83.214" r="8.493" fill="#f2671f"/><circle cx="105.935" cy="83.214" r="8.493" fill="#f2661e"/><circle cx="106.375" cy="83.214" r="8.493" fill="#f2651d"/><circle cx="106.814" cy="83.214" r="8.493" fill="#f2651c"/><circle cx="107.254" cy="83.214" r="8.493" fill="#f2641b"/><circle cx="107.693" cy="83.214" r="8.493" fill="#f2641a"/><circle cx="108.133" cy="83.214" r="8.493" fill="#f26319"/><circle cx="108.572" cy="83.214" r="8.493" fill="#f26218"/><circle cx="109.012" cy="83.214" r="8.493" fill="#f26217"/><circle cx="109.452" cy="83.214" r="8.493" fill="#f16116"/><circle cx="109.891" cy="83.214" r="8.493" fill="#f16015"/><circle cx="110.331" cy="83.214" r="8.493" fill="#f16014"/><circle cx="110.77" cy="83.214" r="8.493" fill="#f15f14"/><circle cx="111.21" cy="83.214" r="8.493" fill="#f15e13"/><circle cx="111.649" cy="83.214" r="8.493" fill="#f15e12"/><circle cx="112.089" cy="83.214" r="8.493" fill="#f15d11"/><circle cx="112.529" cy="83.214" r="8.493" fill="#f15d10"/><circle cx="112.968" cy="83.214" r="8.493" fill="#f15c0f"/><circle cx="113.408" cy="83.214" r="8.493" fill="#f15b0e"/><circle cx="113.847" cy="83.214" r="8.493" fill="#f15b0d"/><circle cx="114.287" cy="83.214" r="8.493" fill="#f15a0c"/></g></g></svg>